<mxfile host="app.diagrams.net" modified="2021-05-08T20:03:14.496Z" agent="5.0 (X11)" etag="0P_RIPtImXL-qicXa8fb" version="14.1.9" type="github">
  <diagram id="1phXy7D9lZ2203PdihrP" name="Page-1">
    <mxGraphModel dx="338" dy="860" grid="1" gridSize="10" guides="1" tooltips="1" connect="1" arrows="1" fold="1" page="1" pageScale="1" pageWidth="1169" pageHeight="827" math="0" shadow="0">
      <root>
        <mxCell id="0" />
        <mxCell id="1" parent="0" />
        <mxCell id="N6gKSqRwfdC3hSwbh4in-1" value="&lt;div align=&quot;left&quot;&gt;1-9) Group 1&lt;br&gt;&lt;/div&gt;&lt;div align=&quot;left&quot;&gt;a) App&lt;/div&gt;&lt;div align=&quot;left&quot;&gt;b #) Move window to group&lt;br&gt;&lt;/div&gt;&lt;div align=&quot;left&quot;&gt;c #) Move window and focus to group&lt;br&gt;&lt;/div&gt;&lt;div align=&quot;left&quot;&gt;d) Drop down list &lt;br&gt;&lt;/div&gt;&lt;div align=&quot;left&quot;&gt;e) Move within group (h, j, k, l)&lt;br&gt;&lt;/div&gt;&lt;div align=&quot;left&quot;&gt;f) Flip (h, l) or Shuffle(j, k)&lt;/div&gt;&lt;div align=&quot;left&quot;&gt;g) Grow (h, j, k, l) or Reset (=)&lt;br&gt;&lt;/div&gt;&lt;div align=&quot;left&quot;&gt;h) Layout&lt;/div&gt;&lt;div align=&quot;left&quot;&gt;i) Toggle float&lt;br&gt;&lt;/div&gt;&lt;div align=&quot;left&quot;&gt;j) Spawn command&lt;br&gt;&lt;/div&gt;&lt;div align=&quot;left&quot;&gt;&lt;br&gt;&lt;/div&gt;" style="text;html=1;align=left;verticalAlign=middle;resizable=0;points=[];autosize=1;" vertex="1" parent="1">
          <mxGeometry x="119" y="-15" width="210" height="170" as="geometry" />
        </mxCell>
      </root>
    </mxGraphModel>
  </diagram>
</mxfile>
